<svg width="59" height="72" viewBox="0 0 59 72" fill="none" xmlns="http://www.w3.org/2000/svg">
<path d="M29.0742 15.6363C36.5258 15.6394 42.573 21.7123 42.573 29.1965C42.573 36.6864 36.5292 42.7566 29.071 42.7566C21.6129 42.7566 15.569 36.6867 15.569 29.1965C15.569 21.7525 21.5395 15.707 28.9397 15.6395L29.0742 15.6363ZM29.0711 0.000138904L28.9398 0.00320603C12.9461 0.0706833 0 13.115 0 29.1964C0 33.3339 0.858202 37.2814 2.41261 40.8603L2.55004 41.1732C2.84628 41.8295 3.42044 42.9613 3.42044 42.9613C4.19615 44.5071 5.01769 46.0376 5.89724 47.5681L5.90029 47.5742C11.0004 56.4445 17.4259 64.2076 23.9673 69.3262C24.0162 69.363 24.1109 69.4366 24.1109 69.4366C24.8408 70.001 25.5707 70.5346 26.3158 71.0408C27.1465 71.6082 28.1085 71.8934 29.0705 71.8934C30.0324 71.8934 30.9945 71.6082 31.8251 71.0408C32.6009 70.5132 33.3674 69.952 34.1339 69.3539C34.1584 69.3355 34.1706 69.3263 34.1706 69.3263C40.7153 64.2042 47.1409 56.4445 52.2407 47.5712C53.1325 46.0192 53.9754 44.4518 54.7603 42.8815C55.255 41.9061 55.5177 41.3356 55.5788 41.2038C55.7132 40.8971 55.7284 40.8603 55.7284 40.8603C57.2829 37.2809 58.1411 33.3335 58.1411 29.1963C58.1411 13.0725 45.1277 0 29.0699 0L29.0711 0.000138904Z" fill="black"/>
</svg>
