<svg width="70" height="69" viewBox="0 0 70 69" fill="none" xmlns="http://www.w3.org/2000/svg">
<path d="M15.1833 33.5755C17.2544 30.9521 19.3256 28.3287 21.3967 25.5672C22.9155 23.6341 24.5724 21.8392 25.8151 19.63C26.3674 18.6635 26.7816 17.6969 27.0577 16.7304C27.472 15.4877 27.61 14.2451 27.472 12.8643C27.3339 11.7597 27.1958 10.6551 26.7816 9.55052C26.0912 7.47939 24.8486 5.54635 23.1917 3.88945C22.0871 2.78485 20.8444 1.9564 19.4636 1.26603C14.3549 -1.08124 8.27958 -0.114719 4.27541 3.75138C0.133163 7.61747 -1.24759 13.8308 1.23776 18.9396C2.48043 21.563 4.82771 23.9103 6.62268 26.1195C8.55573 28.6048 10.4888 30.9521 12.2837 33.4375C12.836 34.404 14.4929 34.404 15.1833 33.5755ZM6.34653 13.5547C6.34653 9.55052 9.66033 6.23672 13.6645 6.23672C17.6687 6.23672 20.9825 9.55052 20.9825 13.5547C20.9825 17.5589 17.6687 20.7346 13.6645 20.7346C9.66033 20.7346 6.34653 17.5589 6.34653 13.5547Z" fill="black"/>
<path d="M69.9993 45.5875C69.9993 44.2068 69.7232 42.826 69.3089 41.5833C68.6186 39.5122 67.3759 37.5792 65.719 35.9223C64.6144 34.9558 63.3717 33.9892 61.991 33.4369C56.8822 31.0897 50.8069 32.0562 46.8027 35.9223C42.6605 39.7884 41.2798 46.0017 43.7651 51.1105C45.0078 53.7339 47.355 56.0812 49.15 58.2904C51.0831 60.7757 53.0161 63.123 54.8111 65.6084C55.5015 66.4368 57.1584 66.4368 57.7107 65.6084C59.7818 62.9849 61.8529 60.3615 63.924 57.6C65.4428 55.667 67.0997 53.7339 68.3424 51.6628C68.8947 50.6963 69.3089 49.7298 69.5851 48.7632C69.8612 47.7967 69.9993 46.6921 69.9993 45.5875ZM56.1918 52.9055C52.1877 52.9055 48.8739 49.5917 48.8739 45.5875C48.8739 41.5833 52.1877 38.2695 56.1918 38.2695C60.196 38.2695 63.5098 41.5833 63.5098 45.5875C63.5098 49.5917 60.196 52.9055 56.1918 52.9055Z" fill="black"/>
<path d="M50.116 64.7811H23.0533C19.8776 64.7811 17.3922 62.2957 17.3922 59.12C17.3922 55.9443 19.8776 53.4589 23.0533 53.4589H26.6433C32.0282 53.4589 36.4466 49.0405 36.4466 43.6556V43.3795C36.4466 37.9946 32.0282 33.5762 26.6433 33.5762H18.6349C17.5303 33.5762 16.5638 34.5427 16.5638 35.6473C16.5638 36.7519 17.5303 37.7184 18.6349 37.7184H26.6433C29.819 37.7184 32.3043 40.2038 32.3043 43.3795V43.6556C32.3043 46.8314 29.819 49.3167 26.6433 49.3167H23.0533C17.6684 49.3167 13.25 53.7351 13.25 59.12C13.25 64.5049 17.6684 68.9233 23.0533 68.9233H50.116C51.2206 68.9233 52.1871 67.9568 52.1871 66.8522C52.1871 65.7476 51.2206 64.7811 50.116 64.7811Z" fill="black"/>
</svg>
